<svg xmlns="http://www.w3.org/2000/svg" width="32" height="32" viewBox="0 0 24 24" fill="none" stroke="currentColor" stroke-width="2" stroke-linecap="round" stroke-linejoin="round">
  <path d="M19 6.3c0 1-.8 1.7-1.8 1.7h-4.7c-1 0-1.8-.8-1.8-1.7V4.7c0-1 .8-1.7 1.8-1.7h4.7c1 0 1.8.8 1.8 1.7v1.6Z"></path>
  <path d="M12.5 8v4"></path>
  <path d="M15.5 10h-6"></path>
  <path d="M5 6.3c0 1 .8 1.7 1.8 1.7"></path>
  <path d="M5 12c0-1 .8-1.7 1.8-1.7"></path>
  <path d="M5 17.7c0-1 .8-1.7 1.8-1.7h4.7c1 0 1.8.8 1.8 1.7v1.6c0 1-.8 1.7-1.8 1.7H6.8c-1 0-1.8-.8-1.8-1.7v-1.6Z"></path>
</svg>
